{"title":"The.Greatest.2009.DVDRiP.XviD.OPTIONAL-MULTISUB-Zen_Bud","uid":5944120,"size":753234650,"categoryP":"video","categoryS":"movies","magnet":"?xt=urn:btih:6f368914efbf057695934b3a902c98983ebf5c4f&amp;dn=The.Greatest.2009.DVDRiP.XviD.OPTIONAL-MULTISUB-Zen_Bud&amp;tr=udp%3A%2F%2Ftracker.openbittorrent.com%3A80&amp;tr=udp%3A%2F%2Fopen.demonii.com%3A1337&amp;tr=udp%3A%2F%2Ftracker.coppersurfer.tk%3A6969&amp;tr=udp%3A%2F%2Fexodus.desync.com%3A6969","seeders":0,"leechers":0,"uploader":"Zen_Bud","files":-1,"time":1289292083,"description":"****** The.Greatest.2009.DVDRiP.XviD.OPTIONAL-MULTISUB-Zen_Bud *******\n\nFormat                           : AVI\nFile size                        : 707 MiB\nDuration                         : 1h 36mn\nOverall bit rate                 : 1 025 Kbps\n\nVideo\n\nFormat                           : MPEG-4 Visual\nCodec ID/Hint                    : XviD\nDuration                         : 1h 36mn\nBit rate                         : 884 Kbps\nWidth                            : 720 pixels\nHeight                           : 428 pixels\nDisplay aspect ratio             : 2.35:1\nStream size                      : 609 MiB (86%)\nWriting library                  : XviD 1.1.2 (UTC 2006-11-01)\n\nAudio\n\nFormat                           : MPEG Audio\nCodec ID/Hint                    : MP3\nDuration                         : 1h 36mn\nBit rate                         : 128 Kbps\nChannel(s)                       : 2 channels\nSampling rate                    : 48.0 KHz\nStream size                      : 88.2 MiB (12%)\nWriting library                  : LAME3.98\nLanguage                         : English\n\nText #1\nLanguage                         : Danish\n\nText #2\nLanguage                         : Swedish\n\nText #3\nLanguage                         : Norwegian\n\n\nA drama that is centered around a troubled teenage girl and a family that is trying to get over the loss of their son. ","torrent":{"xt":"urn:btih:6f368914efbf057695934b3a902c98983ebf5c4f","amp;dn":"The.Greatest.2009.DVDRiP.XviD.OPTIONAL-MULTISUB-Zen_Bud","amp;tr":["udp%3A%2F%2Ftracker.openbittorrent.com%3A80","udp%3A%2F%2Fopen.demonii.com%3A1337","udp%3A%2F%2Ftracker.coppersurfer.tk%3A6969","udp%3A%2F%2Fexodus.desync.com%3A6969"],"infoHash":"6f368914efbf057695934b3a902c98983ebf5c4f","infoHashBuffer":{"type":"Buffer","data":[111,54,137,20,239,191,5,118,149,147,75,58,144,44,152,152,62,191,92,79]},"announce":[],"urlList":[]}}